<svg width="24" height="24" viewBox="0 0 24 24" fill="none" xmlns="http://www.w3.org/2000/svg">
<path d="M11.5145 3.0893C11.5145 4.23841 12.4547 5.1786 13.6038 5.1786C14.7529 5.1786 15.6931 4.23841 15.6931 3.0893C15.6931 1.94018 14.7529 1 13.6038 1C12.4547 1 11.5145 1.94018 11.5145 3.0893Z" fill="#9EA3AE"/>
<path d="M10.8878 15.1028L13.0816 17.1921V23.46H15.1709V15.6251L12.9771 13.5358L13.6039 10.4018C14.962 11.9688 17.0513 13.0135 19.3495 13.0135V10.9242C17.3647 10.9242 15.6932 9.87953 14.8575 8.41702L13.8129 6.74558C13.395 6.11879 12.7682 5.70093 12.0369 5.70093C11.7236 5.70093 11.5146 5.80539 11.2012 5.80539L5.76905 8.10362V13.0135H7.85835V9.46167L9.73872 8.73041L8.06728 17.1921L2.9485 16.1474L2.53064 18.2367L9.84319 19.6992L10.8878 15.1028Z" fill="#9EA3AE"/>
</svg>
